<svg xmlns="http://www.w3.org/2000/svg" xmlns:xlink="http://www.w3.org/1999/xlink" width="512" height="1417" viewBox="0 0 512 1417"><svg viewBox="0 0 512 512" width="512" height="512" id="award" y="0"><path d="M109.093 375.653l-63.378 81.49L118.857 448l18.286 64 64-82.286.293-.375a280.359 280.359 0 0 0-41.435-34.45 282.916 282.916 0 0 0-50.908-19.236zm293.814 0a283.396 283.396 0 0 0-50.907 19.2 279.679 279.679 0 0 0-41.426 34.45L374.857 512l18.286-64 73.143 9.143-63.379-81.49z"></path><path d="M448 228.571c0-38.309 23.872-83.383 5.97-114.286C435.511 82.368 383.909 80.741 352 62.281 321.07 44.352 294.309 0 256 0s-65.07 44.361-96 62.254c-31.918 18.469-83.511 20.114-101.97 52.005C40.128 145.189 64 190.263 64 228.571s-23.872 83.383-5.97 114.286c18.459 31.918 70.062 33.545 101.97 52.005 30.93 17.929 57.691 62.281 96 62.281s65.07-44.361 96-62.254c31.918-18.469 83.511-20.114 101.97-52.005 17.902-30.93-5.97-76.004-5.97-114.313z"></path><circle cx="256" cy="228.571" r="155.429"></circle><path d="M346.715 192h-62.656l-19.365-59.584c-1.573-4.8-6.747-7.406-11.538-5.833a9.134 9.134 0 0 0-5.833 5.833L227.941 192h-62.656c-5.047 0-9.143 4.096-9.143 9.143a9.14 9.14 0 0 0 3.767 7.397l50.688 36.837-19.365 59.593a9.145 9.145 0 1 0 14.071 10.222L256 278.354l50.688 36.827a9.141 9.141 0 0 0 14.071-10.222l-19.365-59.593 50.688-36.837c4.078-2.971 4.974-8.695 2.002-12.773a9.144 9.144 0 0 0-7.369-3.756z"></path><path d="M453.97 114.286c-.393-.686-.914-1.271-1.307-1.92a439.411 439.411 0 0 1-47.634 72.32c24.265 82.286-22.775 168.667-105.061 192.933-54.071 15.936-112.539 1.335-152.768-38.162A441.184 441.184 0 0 1 64 347.43c-.987 0-1.947-.064-2.935-.073C81.609 374.95 129.636 377.336 160 394.9c30.93 17.883 57.691 62.245 96 62.245s65.07-44.361 96-62.254c31.918-18.469 83.511-20.114 101.97-52.005 17.902-30.93-5.97-76.005-5.97-114.313s23.872-83.384 5.97-114.287z"></path><path d="M310.053 271.991l10.715 32.969a9.145 9.145 0 1 1-14.071 10.222l-30.72-22.327a435.98 435.98 0 0 1-128.805 46.629c61.138 60.169 159.47 59.383 219.63-1.755 39.625-40.265 54.263-98.871 38.226-153.042a441.173 441.173 0 0 1-94.975 87.304z"></path><path d="M320.768 304.96l-10.715-32.969a426.423 426.423 0 0 1-34.075 20.864l30.72 22.327a9.141 9.141 0 0 0 14.07-10.222zm67.803 124.754a159.23 159.23 0 0 1 68.489 15.543l-54.153-69.623a283.396 283.396 0 0 0-50.907 19.2 279.679 279.679 0 0 0-41.426 34.45l11.602 14.93a158.957 158.957 0 0 1 66.395-14.5zM160 394.889a283.425 283.425 0 0 0-50.907-19.2l-2.825 3.657a118.581 118.581 0 0 1 49.161 96.082 119.94 119.94 0 0 1-.914 14.263l46.629-59.977.293-.375A280.488 280.488 0 0 0 160 394.889z"></path></svg><svg viewBox="0 0 496 496" width="496" height="496" id="deal" y="512"><path d="M0 41.678v236.8l35.2 22.4 107.2-168.8zM496 45.678v-4l-142.4 90.4 107.2 168.8 35.2-22.4zM404 335.278c30.4-19.2 38.4-60.8 17.6-92.8l-25.6-40c-20.8-32-61.6-42.4-92-23.2l-91.2 57.6c-30.4 19.2-38.4 60.8-17.6 92.8l25.6 40c20.8 32 61.6 42.4 92 23.2l91.2-57.6z"></path><path d="M392.8 342.478c11.2-7.2 14.4-22.4 7.2-33.6-7.2-11.2-22.4-14.4-33.6-7.2l-168 106.4c-11.2 7.2-14.4 22.4-7.2 33.6 7.2 11.2 22.4 14.4 33.6 7.2l168-106.4z"></path><path d="M196 329.678l25.6 40c20.8 32 61.6 42.4 92 23.2l91.2-57.6c30.4-19.2 38.4-60.8 17.6-92.8l-25.6-40"></path><path d="M288.8 303.278c11.2-7.2 14.4-22.4 7.2-33.6-7.2-11.2-22.4-14.4-33.6-7.2l-168 107.2c-11.2 7.2-14.4 22.4-7.2 33.6 7.2 11.2 22.4 14.4 33.6 7.2l168-107.2z"></path><path d="M324 335.278c11.2-7.2 14.4-22.4 7.2-33.6-7.2-11.2-22.4-14.4-33.6-7.2l-168 107.2c-11.2 7.2-14.4 22.4-7.2 33.6 7.2 11.2 22.4 14.4 33.6 7.2l168-107.2zm-36-87.2c11.2-7.2 14.4-22.4 7.2-33.6-7.2-11.2-22.4-14.4-33.6-7.2l-168 107.2c-11.2 7.2-14.4 22.4-7.2 33.6 7.2 11.2 22.4 14.4 33.6 7.2l168-107.2z"></path><path d="M321.6 171.278s-94.4 13.6-102.4 16c-7.2 2.4-29.6 56.8-4 63.2 26.4 6.4 68-27.2 68-27.2l38.4-52zM344.667 157.14l24.981-15.885 92.73 145.834-24.981 15.884z"></path><path d="M369.6 141.678l-24.8 16 92.8 145.6"></path><path d="M496 41.678l-142.4 90.4 107.2 168.8M401.6 368.878l-15.2-9.6c8.8.8 18.4-3.2 23.2-11.2 7.2-11.2 4-26.4-7.2-33.6l-112-71.2c8-16.8-8-52.8-13.6-55.2-7.2-2.4-93.6-14.4-101.6-16-27.2-8-58.4 4-75.2 30.4l-25.6 40c-20.8 32-12.8 73.6 17.6 92.8l7.2 4.8c.8.8 2.4 2.4 4 3.2l168 107.2c11.2 7.2 26.4 4 33.6-7.2 4-6.4 4.8-13.6 2.4-20l32 20.8c11.2 7.2 26.4 4 33.6-7.2 5.6-8 4.8-18.4 0-25.6l1.6.8c11.2 7.2 26.4 4 33.6-7.2 8.8-13.6 5.6-28.8-6.4-36z"></path><path d="M279.2 440.878c-4.8-3.2-6.4-8.8-3.2-13.6l3.2-5.6c3.2-4.8 8.8-6.4 13.6-3.2 4.8 3.2 6.4 8.8 3.2 13.6l-3.2 5.6c-2.4 4.8-8.8 6.4-13.6 3.2zm104-39.2c-4.8-3.2-6.4-8.8-3.2-13.6l3.2-5.6c3.2-4.8 8.8-6.4 13.6-3.2 4.8 3.2 6.4 8.8 3.2 13.6l-3.2 5.6c-2.4 4.8-8.8 6.4-13.6 3.2zm-35.2 32c-4.8-3.2-6.4-8.8-3.2-13.6l3.2-5.6c3.2-4.8 8.8-6.4 13.6-3.2 4.8 3.2 6.4 8.8 3.2 13.6l-3.2 5.6c-3.2 4.8-8.8 6.4-13.6 3.2zm36-86.4c-4.8-3.2-6.4-8.8-3.2-13.6l3.2-5.6c3.2-4.8 8.8-6.4 13.6-3.2 4.8 3.2 6.4 8.8 3.2 13.6l-2.4 5.6c-3.2 4.8-9.6 5.6-14.4 3.2zM58.422 303.318l-24.98-15.88 92.708-145.826 24.98 15.88z"></path><path d="M126.4 141.678l24.8 16-92.8 145.6"></path><path d="M0 41.678l142.4 90.4-107.2 168.8"></path><path d="M56 195.278c-4.8 8-15.2 9.6-22.4 4.8-8-4.8-9.6-15.2-4.8-22.4 4.8-8 15.2-9.6 22.4-4.8 7.2 4.8 9.6 15.2 4.8 22.4zM402.4 313.678l-112-71.2c8-16.8-8-52.8-13.6-55.2-3.2-1.6-25.6-4.8-48.8-8l-25.6 80 210.4 67.2c-1.6-4.8-4.8-9.6-10.4-12.8z"></path><path d="M296 192.878c7.2 12 10.4 43.2.8 48.8l-80.8 17.6c-9.6 5.6-22.4 0-29.6-11.2-7.2-12-4.8-25.6 4.8-31.2l57.6-33.6c9.6-5.6 39.2-4 46.4 7.2l.8 2.4z"></path></svg><svg viewBox="0 0 408.788 408.788" width="408.788" height="408.788" id="facebook" y="1008"><path d="M353.701 0H55.087C24.665 0 .002 24.662.002 55.085v298.616c0 30.423 24.662 55.085 55.085 55.085h147.275l.251-146.078h-37.951a8.954 8.954 0 0 1-8.954-8.92l-.182-47.087a8.955 8.955 0 0 1 8.955-8.989h37.882v-45.498c0-52.8 32.247-81.55 79.348-81.55h38.65a8.955 8.955 0 0 1 8.955 8.955v39.704a8.955 8.955 0 0 1-8.95 8.955l-23.719.011c-25.615 0-30.575 12.172-30.575 30.035v39.389h56.285c5.363 0 9.524 4.683 8.892 10.009l-5.581 47.087a8.955 8.955 0 0 1-8.892 7.901h-50.453l-.251 146.078h87.631c30.422 0 55.084-24.662 55.084-55.084V55.085C408.786 24.662 384.124 0 353.701 0z"></path></svg></svg>